# xmcd
#
# Track frame offsets: 
#        183
#        23070
#        49068
#        70055
#        92333
#        114780
#        142455
#
# Disc length: 2224 seconds
#
# Revision: 2
# Processed by: cddbd v1.5.1PL0 Copyright (c) Steve Scherf et al.
# Submitted via: ExactAudioCopy v0.90b4
#
DISCID=5608ae07
DTITLE=Johnny Guitar Watson - A Real Mother
DYEAR=1977
DGENRE=Funk
TTITLE0=A Real Mother For Ya
TTITLE1=Nothing Left To Be Desired
TTITLE2=Your Love Is My Love
TTITLE3=The Real Deal
TTITLE4=Tarzan
TTITLE5=I Wanna Thank You
TTITLE6=Lover Jones
EXTD=
EXTT0=
EXTT1=
EXTT2=
EXTT3=
EXTT4=
EXTT5=
EXTT6=
PLAYORDER=
